<?xml version="1.0" encoding="utf-8"?>
<!-- Generator: Adobe Illustrator 16.0.0, SVG Export Plug-In . SVG Version: 6.00 Build 0)  -->
<!DOCTYPE svg PUBLIC "-//W3C//DTD SVG 1.1//EN" "http://www.w3.org/Graphics/SVG/1.1/DTD/svg11.dtd">
<svg version="1.1" id="Upload" xmlns="http://www.w3.org/2000/svg" xmlns:xlink="http://www.w3.org/1999/xlink" x="0px" y="0px"
	 width="288px" height="288px" viewBox="0 0 288 288" enable-background="new 0 0 288 288" xml:space="preserve">
<path fill="#1F3661" d="M144.001,282.793C65.639,282.793,1.887,220.53,1.887,144S65.639,5.208,144.001,5.208
	c78.361,0,142.112,62.262,142.112,138.792S222.362,282.793,144.001,282.793z M144.001,15.208
	C71.153,15.208,11.887,72.983,11.887,144s59.266,128.793,132.114,128.793c72.847,0,132.112-57.776,132.112-128.793
	S216.848,15.208,144.001,15.208z"/>
<polygon fill="#1F3661" points="204.742,178.5 204.742,206.905 83.257,206.905 83.257,178.5 64.413,178.5 64.413,206.905 
	64.413,225.75 64.413,225.75 223.587,225.75 223.587,178.5 "/>
<polygon fill="#1F3661" points="196.768,124.344 144.001,58.727 91.232,124.344 119.892,124.344 119.892,195 168.108,195 
	168.108,124.344 "/>
</svg>
